<?xml version="1.0" standalone="no"?>
<!DOCTYPE svg PUBLIC "-//W3C//DTD SVG 20010904//EN"
 "http://www.w3.org/TR/2001/REC-SVG-20010904/DTD/svg10.dtd">
<svg version="1.0" xmlns="http://www.w3.org/2000/svg"
 width="400.000000pt" height="400.000000pt" viewBox="0 0 400.000000 400.000000"
 preserveAspectRatio="xMidYMid meet">
<metadata>
Created by potrace 1.11, written by Peter Selinger 2001-2013
</metadata>
<g transform="translate(0.000000,400.000000) scale(0.100000,-0.100000)"
fill="#000000" stroke="none">
<path d="M3273 3306 l-423 -424 0 -1306 0 -1306 425 0 425 0 0 1730 c0 952 -1
1730 -2 1730 -2 -1 -193 -191 -425 -424z m152 -1512 l0 -1234 -142 0 -143 0 0
1102 0 1103 137 137 c75 76 140 135 143 132 3 -3 5 -561 5 -1240z"/>
<path d="M2002 2597 l-422 -422 0 -953 0 -952 425 0 425 0 1 23 c3 91 0 2719
-3 2722 -2 2 -194 -186 -426 -418z m140 -1154 c0 -478 -1 -871 -1 -875 -1 -5
-64 -8 -141 -8 -126 0 -140 2 -141 18 0 9 -1 343 -1 741 l0 723 138 139 c76
76 140 136 142 134 3 -3 5 -395 4 -872z"/>
<path d="M723 1893 l-423 -425 0 -599 0 -599 425 0 425 0 0 1025 c0 564 -1
1025 -2 1024 -2 -1 -193 -192 -425 -426z m152 -798 l0 -535 -142 0 -143 0 0
397 0 397 140 138 c77 76 141 138 143 138 1 0 2 -241 2 -535z"/>
</g>
</svg>
